Coordinates
version=1
nRows=23
nColumns=38
inDegrees=no

Units are S.I. units (second, meters, Newtons, ...)
If the header above contains a line with 'inDegrees', this indicates whether rotational values are in degrees (yes) or radians (no).

endheader
time	pelvis_tilt	pelvis_list	pelvis_rotation	pelvis_tx	pelvis_ty	pelvis_tz	hip_flexion_r	hip_adduction_r	hip_rotation_r	knee_angle_r	ankle_angle_r	subtalar_angle_r	mtp_angle_r	hip_flexion_l	hip_adduction_l	hip_rotation_l	knee_angle_l	ankle_angle_l	subtalar_angle_l	mtp_angle_l	lumbar_extension	lumbar_bending	lumbar_rotation	arm_flex_r	arm_add_r	arm_rot_r	elbow_flex_r	pro_sup_r	wrist_flex_r	wrist_dev_r	arm_flex_l	arm_add_l	arm_rot_l	elbow_flex_l	pro_sup_l	wrist_flex_l	wrist_dev_l
0	2.94888	1.28377	-1.36443	0.858988	-0.629517	0.959481	-0.287193	0.0690786	-0.141482	0.397426	-0.171975	0	0	0.224822	-0.13411	-0.106278	1.11792	-0.15781	0	0	-0.504351	0.084294	0.052715	0.0225858	-0.642522	1.0664	0.892335	0.361774	0	0	-0.105243	-0.375516	0.436611	0.68998	0.980242	0	0
0.01	2.94377	1.28895	-1.35972	0.859078	-0.621887	0.958465	-0.296291	0.0708589	-0.13371	0.384646	-0.16741	0	0	0.243324	-0.144739	-0.136073	1.07703	-0.166519	0	0	-0.500548	0.0832455	0.0551519	0.0231729	-0.641465	1.06479	0.890852	0.359176	0	0	-0.101018	-0.378976	0.447567	0.689733	0.971216	0	0
0.02	2.94482	1.29014	-1.36044	0.859054	-0.614069	0.957769	-0.310732	0.0714438	-0.130425	0.371497	-0.16321	0	0	0.252899	-0.153512	-0.16673	1.03214	-0.172108	0	0	-0.501246	0.0814967	0.0578381	0.0227096	-0.640518	1.06205	0.890184	0.358908	0	0	-0.0968302	-0.382793	0.457466	0.691475	0.966473	0	0
0.03	2.94808	1.29049	-1.36295	0.858887	-0.606182	0.957132	-0.326742	0.0715168	-0.127601	0.357322	-0.160712	0	0	0.258272	-0.158768	-0.193525	0.983169	-0.178049	0	0	-0.503302	0.0798325	0.060603	0.0211798	-0.640051	1.05785	0.89048	0.360589	0	0	-0.0909387	-0.385982	0.46914	0.691971	0.95928	0	0
0.04	2.95058	1.29253	-1.36415	0.858575	-0.598074	0.956285	-0.34084	0.0711462	-0.126949	0.344286	-0.160334	0	0	0.262821	-0.160948	-0.215054	0.930925	-0.181487	0	0	-0.503399	0.0787895	0.062081	0.0183292	-0.639253	1.05047	0.890435	0.361804	0	0	-0.0849838	-0.387364	0.479679	0.689629	0.950152	0	0
0.05	2.95063	1.29563	-1.36292	0.858127	-0.589924	0.955221	-0.353161	0.0710257	-0.126772	0.333234	-0.161652	0	0	0.266399	-0.160986	-0.231425	0.875674	-0.180396	0	0	-0.502225	0.0780325	0.0641314	0.0145748	-0.638282	1.04228	0.889876	0.363772	0	0	-0.0790738	-0.388591	0.490861	0.687028	0.943139	0	0
0.06	2.9476	1.30068	-1.35869	0.857575	-0.581626	0.953918	-0.362565	0.0713983	-0.125528	0.323809	-0.160641	0	0	0.269905	-0.158836	-0.241843	0.81714	-0.175053	0	0	-0.498507	0.0781974	0.0661023	0.0103176	-0.637317	1.03428	0.888774	0.367217	0	0	-0.0726346	-0.388088	0.501414	0.682426	0.935517	0	0
0.07	2.94372	1.30755	-1.35312	0.856877	-0.57321	0.952426	-0.369774	0.0716522	-0.123919	0.314605	-0.156499	0	0	0.272728	-0.153132	-0.243543	0.75421	-0.167851	0	0	-0.492426	0.0786704	0.0677569	0.00505161	-0.636054	1.02596	0.887176	0.373848	0	0	-0.0652948	-0.386698	0.513562	0.675374	0.924858	0	0
0.08	2.95279	1.32006	-1.35663	0.855853	-0.565371	0.951137	-0.369825	0.06816	-0.124248	0.307879	-0.150343	0	0	0.262829	-0.116762	-0.172373	0.644182	-0.152998	0	0	-0.481718	0.0750025	0.0661784	-5.36327e-05	-0.627998	1.01499	0.875849	0.385162	0	0	-0.0528698	-0.385276	0.531942	0.661272	0.913404	0	0
0.09	2.95631	1.32936	-1.3561	0.854781	-0.557139	0.949621	-0.372594	0.066002	-0.126935	0.303182	-0.148133	0	0	0.249596	-0.0929033	-0.117504	0.542471	-0.147857	0	0	-0.473622	0.0725093	0.0656255	-0.00593217	-0.622962	1.00365	0.869401	0.394616	0	0	-0.0457146	-0.385961	0.545802	0.655459	0.906982	0	0
0.1	2.94945	1.33485	-1.34762	0.853672	-0.548424	0.947861	-0.37873	0.0663158	-0.128567	0.300175	-0.145498	0	0	0.245865	-0.0895558	-0.113983	0.480884	-0.144941	0	0	-0.46868	0.0733984	0.0661938	-0.0121521	-0.623756	0.993461	0.87152	0.400563	0	0	-0.0445723	-0.38695	0.552841	0.656525	0.902766	0	0
0.11	2.94201	1.34049	-1.33926	0.852558	-0.539416	0.946077	-0.384266	0.066284	-0.130121	0.29832	-0.143162	0	0	0.242053	-0.0878094	-0.115297	0.426931	-0.141672	0	0	-0.463025	0.0742337	0.0669146	-0.0191685	-0.624478	0.98275	0.873568	0.406994	0	0	-0.0446849	-0.387289	0.557945	0.657279	0.899148	0	0
0.12	2.93622	1.34556	-1.33273	0.851412	-0.53028	0.944411	-0.389687	0.0657451	-0.132259	0.29777	-0.141672	0	0	0.237028	-0.0859179	-0.117755	0.379551	-0.138458	0	0	-0.457809	0.0745288	0.067645	-0.0261674	-0.624534	0.972196	0.874518	0.413617	0	0	-0.0449994	-0.387168	0.561572	0.657572	0.896688	0	0
0.13	2.93051	1.34966	-1.32696	0.850267	-0.521107	0.942934	-0.395133	0.0648281	-0.133597	0.29894	-0.139799	0	0	0.230713	-0.0841475	-0.121218	0.337811	-0.136618	0	0	-0.453781	0.0747636	0.0689848	-0.0328682	-0.624667	0.962256	0.875298	0.420494	0	0	-0.0447927	-0.386201	0.564799	0.656632	0.895941	0	0
0.14	2.92201	1.35228	-1.31936	0.849196	-0.511889	0.941614	-0.400938	0.0642914	-0.133214	0.302343	-0.137989	0	0	0.222984	-0.0838896	-0.123987	0.301833	-0.137163	0	0	-0.451198	0.0751684	0.0711714	-0.0383947	-0.624912	0.954658	0.875863	0.42647	0	0	-0.0459445	-0.386053	0.566462	0.657677	0.896295	0	0
0.15	2.91117	1.35369	-1.3102	0.848235	-0.502479	0.940372	-0.407454	0.064814	-0.131957	0.306537	-0.136607	0	0	0.213784	-0.0853639	-0.1246	0.272505	-0.140415	0	0	-0.449421	0.0757112	0.0739179	-0.0430974	-0.624873	0.948905	0.875868	0.43149	0	0	-0.0486251	-0.386734	0.566759	0.660348	0.897135	0	0
0.16	2.8968	1.35435	-1.29892	0.847322	-0.492778	0.939211	-0.413925	0.0649204	-0.130466	0.311842	-0.137093	0	0	0.204392	-0.0888385	-0.125173	0.254861	-0.145118	0	0	-0.447592	0.0769981	0.0775096	-0.0473557	-0.625365	0.944743	0.875902	0.435128	0	0	-0.0525617	-0.386706	0.565857	0.662944	0.898086	0	0
0.17	2.88302	1.35388	-1.28879	0.8463	-0.482858	0.938158	-0.420968	0.0644918	-0.129478	0.318661	-0.139264	0	0	0.194019	-0.0922207	-0.124374	0.249477	-0.151267	0	0	-0.446456	0.0781897	0.0816887	-0.0530222	-0.627061	0.940067	0.877851	0.438963	0	0	-0.057451	-0.386927	0.564178	0.666608	0.899406	0	0
0.18	2.87049	1.35315	-1.28037	0.845232	-0.472695	0.937206	-0.428254	0.0634969	-0.128464	0.325415	-0.142516	0	0	0.183585	-0.0947294	-0.122608	0.255916	-0.155891	0	0	-0.445096	0.0793382	0.0856448	-0.0586027	-0.629013	0.936334	0.880041	0.442194	0	0	-0.0625877	-0.386616	0.562758	0.669792	0.901316	0	0
0.19	2.8674	1.35038	-1.28125	0.843849	-0.462511	0.936635	-0.43733	0.0603005	-0.128617	0.334293	-0.148019	0	0	0.169456	-0.0946775	-0.120633	0.26579	-0.159153	0	0	-0.446683	0.0796059	0.0896735	-0.064892	-0.631665	0.931034	0.883099	0.446781	0	0	-0.0669997	-0.385382	0.560739	0.673145	0.904412	0	0
0.2	2.86985	1.34734	-1.28801	0.842335	-0.451999	0.936325	-0.447346	0.055688	-0.127634	0.342153	-0.154233	0	0	0.154466	-0.0921494	-0.122701	0.273543	-0.159454	0	0	-0.448468	0.079017	0.0930426	-0.0716313	-0.633531	0.924933	0.884897	0.451368	0	0	-0.0716247	-0.382614	0.557479	0.674133	0.907394	0	0
0.21	2.8826	1.34451	-1.30448	0.840613	-0.441251	0.936304	-0.457697	0.0487329	-0.126019	0.349922	-0.162083	0	0	0.138965	-0.0866574	-0.129147	0.274821	-0.161673	0	0	-0.450051	0.0758088	0.0956374	-0.0789331	-0.633475	0.91854	0.884022	0.456266	0	0	-0.0771229	-0.380409	0.553213	0.67461	0.911045	0	0
0.22	2.90256	1.34199	-1.32612	0.83867	-0.430463	0.936509	-0.467171	0.0410254	-0.12439	0.358838	-0.171462	0	0	0.124079	-0.0788018	-0.134137	0.271746	-0.1696	0	0	-0.451487	0.0714822	0.0960029	-0.0858179	-0.632033	0.911745	0.881687	0.460989	0	0	-0.082702	-0.378569	0.548556	0.675225	0.915697	0	0
